<svg viewBox="0 0 21 16" fill="none" xmlns="http://www.w3.org/2000/svg">
<path d="M20.2688 5.14087C20.425 5.02368 20.6594 5.14087 20.6594 5.33618V13.3049C20.6594 14.3596 19.8 15.1799 18.7844 15.1799H2.53438C1.47969 15.1799 0.659375 14.3596 0.659375 13.3049V5.33618C0.659375 5.14087 0.854688 5.02368 1.01094 5.14087C1.90938 5.84399 3.04219 6.70337 7.02656 9.59399C7.84688 10.1799 9.25313 11.469 10.6594 11.469C12.0266 11.469 13.4719 10.1799 14.2531 9.59399C18.2375 6.70337 19.3703 5.84399 20.2688 5.14087ZM10.6594 10.1799C9.72188 10.219 8.43281 9.04712 7.76875 8.57837C2.57344 4.82837 2.18281 4.47681 1.01094 3.53931C0.776563 3.38306 0.659375 3.10962 0.659375 2.79712V2.05493C0.659375 1.03931 1.47969 0.179932 2.53438 0.179932H18.7844C19.8 0.179932 20.6594 1.03931 20.6594 2.05493V2.79712C20.6594 3.10962 20.5031 3.38306 20.2688 3.53931C19.0969 4.47681 18.7063 4.82837 13.5109 8.57837C12.8469 9.04712 11.5578 10.219 10.6594 10.1799Z" fill="#F9F9F9"/>
</svg>
