<svg  viewBox="0 0 21 21" fill="none" xmlns="http://www.w3.org/2000/svg">
<path d="M20.0734 14.6406C20.3859 14.7969 20.6203 15.1484 20.6203 15.5391C20.6203 15.5781 20.6203 15.6562 20.6203 15.7344L19.6828 19.7969C19.5656 20.2266 19.2141 20.5 18.7844 20.5C8.74531 20.5 0.659375 12.4141 0.659375 2.375C0.659375 1.94531 0.932813 1.59375 1.3625 1.47656L5.425 0.539062C5.50313 0.539062 5.58125 0.5 5.62031 0.5C6.01094 0.5 6.3625 0.734375 6.51875 1.08594L8.39375 5.46094C8.43281 5.57812 8.47188 5.69531 8.47188 5.8125C8.47188 6.125 8.31563 6.39844 8.12031 6.55469L5.7375 8.50781C7.18281 11.5547 9.60469 13.9766 12.6516 15.4219L14.6047 13.0391C14.7609 12.8438 15.0344 12.6875 15.3078 12.6875C15.4641 12.6875 15.5813 12.7266 15.6984 12.7656L20.0734 14.6406Z" fill="#F9F9F9"/>
</svg>
