<svg xmlns="http://www.w3.org/2000/svg" viewBox="0 0 92 18" fill="none">
  <path d="M13.4726 17.222H1.01466C0.331393 17.222 0 16.8636 0 16.1692V2.0068C0 1.31237 0.330462 0.976318 1.01466 0.976318H13.2957C17.1319 0.976318 19.7784 1.8951 19.7784 5.63723C19.7784 7.20576 19.3157 8.37121 17.75 9.15501C19.0951 9.67072 19.9766 10.5895 19.9766 12.5834C19.9766 16.4149 16.7353 17.222 13.4726 17.222ZM13.3395 10.2981H2.93227V14.8026H13.6485C16.5594 14.8026 16.9783 14.1752 16.9783 12.6737C16.9783 10.9479 16.4263 10.2981 13.3395 10.2981ZM2.99929 7.8555H13.4949C16.1405 7.8555 16.9569 7.49712 16.9569 5.61488C16.9569 4.04635 16.3835 3.3966 13.6057 3.3966H2.99929V7.8555Z" fill="#F2F2F2"/>
  <path d="M25.6873 16.2586C25.6873 17.1103 25.18 17.3114 24.21 17.3114C23.2623 17.3114 22.755 17.1094 22.755 16.2586V1.93979C22.755 1.08803 23.2623 0.886963 24.21 0.886963C25.18 0.886963 25.6873 1.08896 25.6873 1.93979V16.2586Z" fill="#F2F2F2"/>
  <path d="M38.4975 7.45146L45.4651 1.37841C45.8402 1.06471 46.2368 0.975342 46.9424 0.975342C47.6257 0.975342 48.3536 1.06471 48.3536 1.89412C48.3536 2.29719 48.1991 2.49919 47.648 2.99255L40.5259 9.17731L47.7141 15.295C48.2875 15.7884 48.442 15.9895 48.442 16.3935C48.442 17.2005 47.8249 17.3123 46.9871 17.3123C46.3476 17.3123 46.0171 17.2452 45.6196 16.9092L38.343 10.7244L31.2431 16.9092C30.8466 17.2452 30.4491 17.3123 29.8096 17.3123C29.0816 17.3123 28.3546 17.2229 28.3546 16.3935C28.3546 15.9904 28.5092 15.7884 29.0602 15.295L36.3146 8.99858L29.3032 2.99348C28.7298 2.50012 28.5752 2.29905 28.5752 1.89505C28.5752 1.11032 29.171 0.976274 30.0088 0.976274C30.6921 0.976274 31.0449 1.06563 31.3977 1.37934L38.4975 7.45146Z" fill="#F2F2F2"/>
  <path d="M57.35 10.1855C53.0065 10.1855 50.8236 8.79662 50.8236 6.01795V5.14386C50.8236 2.34284 53.0065 0.976318 57.35 0.976318H59.5553C60.2609 0.976318 60.4154 1.37939 60.4154 2.18646C60.4154 2.99353 60.2609 3.3966 59.5553 3.3966H57.2839C54.7045 3.3966 53.7345 4.15806 53.7345 5.14479V6.01888C53.7345 6.98234 54.7045 7.76707 57.2839 7.76707H62.4875C66.831 7.76707 69.0139 9.15594 69.0139 11.9346V13.0554C69.0139 15.8564 66.831 17.2229 62.4875 17.2229H51.6828C50.9772 17.2229 50.8227 16.8199 50.8227 16.0128C50.8227 15.2057 50.9772 14.8026 51.6828 14.8026H62.5527C65.1322 14.8026 66.1031 14.0412 66.1031 13.0545V11.9337C66.1031 10.9702 65.1331 10.1855 62.5527 10.1855H57.35Z" fill="#F2F2F2"/>
  <path d="M78.2083 17.2219C73.8648 17.2219 71.6819 15.8331 71.6819 13.0544V5.14471C71.6819 2.3437 73.8648 0.977173 78.2083 0.977173H84.6248C88.9683 0.977173 91.1512 2.3437 91.1512 5.14471V13.0544C91.1512 15.8331 88.9683 17.2219 84.6248 17.2219H78.2083ZM88.2403 13.0535V5.14378C88.2403 4.15798 87.1158 3.39559 84.5364 3.39559H78.2967C75.7172 3.39559 74.5927 4.15705 74.5927 5.14378V13.0535C74.5927 14.0169 75.7172 14.8016 78.2967 14.8016H84.5364C87.1158 14.8016 88.2403 14.0178 88.2403 13.0535Z" fill="#F2F2F2"/>
</svg>