<svg xmlns="http://www.w3.org/2000/svg" viewBox="0 0 42 42" fill="none">
  <path fill-rule="evenodd" clip-rule="evenodd" d="M7.64297 10.9762L14.5883 37.455L1.50383 24.3706C-0.501278 22.3674 -0.501278 19.1167 1.50383 17.1144L7.64297 10.9762Z" fill="#F2F2F2"/>
  <path fill-rule="evenodd" clip-rule="evenodd" d="M25.8717 38.4837L24.372 39.9834C22.3651 41.9885 19.1182 41.9885 17.1158 39.9834L15.6162 38.4837L18.9608 20.5159C18.9795 20.4154 18.9944 20.3176 19.0065 20.218C19.5408 20.4442 20.1291 20.569 20.7444 20.569C21.3597 20.569 21.9462 20.4452 22.4796 20.2208C22.4917 20.3213 22.5056 20.4191 22.5252 20.5159L25.8717 38.4837Z" fill="#F2F2F2"/>
  <path fill-rule="evenodd" clip-rule="evenodd" d="M17.9749 12.3848L9.7794 8.83997L17.1175 1.50186C19.1198 -0.500458 22.3667 -0.500458 24.3737 1.50186L31.7118 8.83997L23.5108 12.3848C23.4773 12.3987 23.4466 12.4136 23.4177 12.4322C22.6693 11.8793 21.744 11.5526 20.7451 11.5526C19.7463 11.5526 18.8192 11.8793 18.0707 12.435C18.0391 12.4155 18.0084 12.3987 17.9749 12.3848Z" fill="#F2F2F2"/>
  <path fill-rule="evenodd" clip-rule="evenodd" d="M39.983 24.3708L26.9442 37.4096L33.8448 10.9755L39.983 17.1137C41.9863 19.1179 41.9863 22.3685 39.983 24.3708Z" fill="#F2F2F2"/>
  <g opacity="0.8">
    <path d="M24.0665 14.0979L22.1545 15.2038C21.878 14.7942 21.4275 14.5122 20.9099 14.4628V12.2501C22.2448 12.305 23.4056 13.0302 24.0665 14.0979Z" fill="#F2F2F2"/>
    <path d="M24.0167 18.2869C23.3325 19.3407 22.2434 20.0388 20.8983 20.063V20.0342V17.8485C21.3898 17.8028 21.8189 17.5506 22.0973 17.1782L24.0167 18.2869Z" fill="#F2F2F2"/>
    <path d="M20.5818 12.2501V14.4628C20.0596 14.5131 19.6071 14.797 19.3307 15.2094L17.4168 14.1082C18.0759 13.0349 19.2395 12.305 20.5818 12.2501Z" fill="#F2F2F2"/>
    <path d="M24.6526 16.1552C24.6526 16.8255 24.4832 17.4548 24.1853 18.0077L22.2733 16.9018C22.3832 16.6756 22.4446 16.4224 22.4446 16.1552C22.4446 15.9216 22.3971 15.6954 22.3087 15.4925L24.2282 14.3838C24.5 14.9163 24.6526 15.5167 24.6526 16.1552Z" fill="#F2F2F2"/>
    <path d="M19.2169 16.9064L17.3049 18.0104C17.0042 17.4575 16.8329 16.8282 16.8329 16.1561C16.8329 15.5222 16.9856 14.9208 17.2574 14.3921L19.1741 15.498C19.0885 15.7009 19.0429 15.9225 19.0429 16.1561C19.0429 16.4251 19.1043 16.6802 19.2169 16.9064Z" fill="#F2F2F2"/>
    <path d="M20.5727 20.034V20.0629C19.2304 20.0387 18.1543 19.3433 17.4682 18.2914L19.3923 17.1827C19.666 17.5476 20.0886 17.798 20.5727 17.8483V20.034Z" fill="#F2F2F2"/>
  </g>
</svg>